# xmcd CD database file
#
# Track frame offsets:
#	150
#	29250
#	54150
#	88800
#	118840
#	158738
#
# Disc length: 2393 seconds
#
# Revision: 0
# Processed by: cddbd v1.5.2PL0 Copyright (c) Steve Scherf et al.
# Submitted via: CDex 1.51
#
DISCID=43095706
DTITLE=Parlan, Reid, Harewood, van Enkhuizen - Joe Meets The Rhythm Section
DYEAR=1987
DGENRE=Jazz
TTITLE0=Alfies Theme
TTITLE1=God Bless the Child
TTITLE2=Bluesville
TTITLE3=Willow Weep For Me
TTITLE4=Wadin'
TTITLE5=F.S.R.
EXTD=YEAR: 1987
EXTT0=
EXTT1=
EXTT2=
EXTT3=
EXTT4=
EXTT5=
PLAYORDER=
